<?xml version="1.0" standalone="no"?>
<!DOCTYPE svg PUBLIC "-//W3C//DTD SVG 20010904//EN"
 "http://www.w3.org/TR/2001/REC-SVG-20010904/DTD/svg10.dtd">
<svg version="1.0" xmlns="http://www.w3.org/2000/svg"
 width="500.000000pt" height="500.000000pt" viewBox="0 0 500.000000 500.000000"
 preserveAspectRatio="xMidYMid meet">

<g transform="translate(0.000000,500.000000) scale(0.100000,-0.100000)"
fill="#000000" stroke="none">
<path d="M1121 2833 c10 -2 19 -12 21 -21 3 -10 4 -122 3 -250 l-2 -232 64 0
63 0 0 255 0 255 -82 -1 c-46 -1 -76 -3 -67 -6z"/>
<path d="M3198 2830 l23 -10 -3 -250 -3 -250 53 0 c44 0 54 3 60 21 l8 20 18
-20 c23 -26 93 -28 136 -6 56 29 84 135 60 224 -21 79 -96 119 -160 86 -35
-18 -39 -25 -9 -18 38 10 49 -20 49 -133 0 -143 -23 -191 -71 -148 -18 17 -20
29 -19 134 1 63 1 170 1 238 l-1 122 -82 -1 c-61 0 -77 -3 -60 -9z"/>
<path d="M1375 2818 c-26 -15 -35 -28 -35 -55 0 -53 78 -84 113 -45 20 22 22
75 4 90 -21 17 -61 23 -82 10z"/>
<path d="M515 2800 l-30 -8 28 -1 27 -1 0 -211 c0 -126 -4 -218 -10 -230 -13
-24 -70 -27 -70 -3 0 9 10 24 23 34 21 18 21 20 7 47 -30 55 -103 35 -103 -27
0 -24 7 -40 27 -57 39 -33 138 -33 187 0 58 39 64 62 67 265 4 179 4 182 25
183 43 3 -37 17 -93 17 -30 0 -68 -4 -85 -8z"/>
<path d="M2087 2570 c-61 -164 -94 -240 -105 -243 -10 -3 8 -5 38 -4 30 0 42
2 27 4 -17 3 -27 9 -24 16 2 7 14 43 26 80 l23 68 71 -3 70 -3 24 -69 c12 -39
23 -73 23 -77 0 -4 -12 -10 -27 -12 -16 -2 24 -5 87 -5 79 -1 110 2 98 8 -17
10 -25 31 -129 313 -58 159 -62 167 -88 167 -25 0 -30 -10 -114 -240z m113
-57 c0 -9 -17 -13 -60 -13 -33 0 -60 4 -60 9 0 5 11 40 25 77 14 38 28 76 31
84 5 14 64 -130 64 -157z"/>
<path d="M1676 2644 c5 -10 9 -77 9 -149 0 -128 0 -130 26 -152 55 -47 161
-21 158 40 -1 21 -1 21 -8 -3 -10 -37 -41 -39 -42 -3 -1 92 -12 209 -20 229
-9 26 -33 38 -95 50 -34 6 -36 5 -28 -12z"/>
<path d="M3693 2651 c-45 -12 -81 -37 -104 -74 -16 -26 -19 -45 -17 -99 6
-110 59 -158 174 -158 108 0 164 60 164 175 0 70 -23 116 -69 140 -38 19 -106
27 -148 16z m77 -16 c14 -17 20 -232 7 -277 -9 -33 -46 -38 -68 -11 -18 21
-18 247 0 281 14 25 43 29 61 7z"/>
<path d="M4439 2642 c6 -12 11 -76 11 -151 0 -128 0 -130 26 -150 50 -39 154
-18 154 31 0 6 -6 4 -13 -7 -26 -34 -37 -8 -37 88 0 154 -18 188 -108 202 -42
7 -43 6 -33 -13z"/>
<path d="M724 2641 c17 -6 19 -17 17 -85 -5 -181 20 -236 106 -236 29 1 56 7
68 17 18 14 18 15 1 9 -40 -14 -46 8 -46 160 l0 144 -82 -1 c-48 0 -75 -4 -64
-8z"/>
<path d="M933 2643 c15 -4 17 -19 17 -124 0 -68 -5 -129 -11 -141 -6 -12 -7
-18 -1 -14 5 3 13 -5 16 -19 6 -24 10 -25 79 -24 39 1 64 3 55 6 -16 4 -18 20
-18 164 l0 159 -77 -1 c-43 -1 -70 -3 -60 -6z"/>
<path d="M1338 2641 c10 -6 12 -43 10 -159 l-3 -151 72 -6 c39 -4 77 -5 85 -2
7 3 3 6 -9 6 -23 1 -23 2 -23 161 l0 160 -72 0 c-43 0 -68 -4 -60 -9z"/>
<path d="M1568 2634 c-33 -17 -45 -56 -29 -90 8 -18 18 -24 44 -24 18 0 38 5
45 12 15 15 16 68 1 68 -7 0 -9 10 -7 25 6 29 -12 32 -54 9z"/>
<path d="M2441 2643 c9 -2 37 -63 74 -163 57 -156 59 -160 87 -160 26 0 29 -3
23 -22 -27 -89 -75 -148 -110 -134 -19 7 -19 35 0 42 8 4 15 14 15 23 0 45
-69 57 -95 17 -30 -46 12 -96 81 -96 14 0 40 14 59 33 30 27 45 59 96 207 34
96 67 191 73 210 10 26 19 36 39 38 l27 3 0 -116 c0 -169 20 -205 113 -205 32
0 49 6 63 21 19 22 19 22 -3 8 -41 -25 -47 -3 -48 156 l0 145 -120 -1 c-66 -1
-110 -4 -97 -6 12 -2 22 -7 22 -11 1 -21 -75 -221 -81 -214 -7 7 -69 199 -69
213 0 4 8 10 18 12 9 3 -28 5 -83 5 -55 0 -93 -2 -84 -5z"/>
<path d="M3003 2643 c17 -4 18 -17 16 -153 -2 -82 -1 -151 1 -154 5 -4 61 -9
98 -7 22 1 22 2 22 161 l0 160 -77 -1 c-43 -1 -70 -3 -60 -6z"/>
<path d="M3938 2638 c6 -7 36 -78 68 -158 31 -80 58 -146 59 -148 3 -3 43 -5
66 -3 10 1 30 47 65 156 31 97 55 156 64 159 8 2 -5 4 -30 3 -25 0 -35 -2 -22
-4 12 -2 22 -7 22 -11 0 -12 -67 -212 -72 -218 -3 -2 -23 46 -45 108 -40 112
-40 113 -19 120 11 3 -21 6 -73 7 -74 1 -91 -2 -83 -11z"/>
<path d="M4334 2638 c-22 -10 -44 -47 -44 -72 0 -23 37 -48 66 -44 19 2 34 13
44 31 14 26 14 29 -4 42 -12 9 -17 21 -13 35 6 23 -13 26 -49 8z"/>
<path d="M1573 2473 c-13 -2 -32 -16 -44 -31 -25 -32 -20 -78 12 -104 26 -22
111 -25 128 -4 9 11 8 14 -6 12 -25 -2 -32 94 -8 118 15 15 13 16 -22 15 -21
-1 -48 -4 -60 -6z"/>
<path d="M4320 2462 c-38 -19 -52 -52 -38 -91 13 -36 38 -50 90 -51 47 0 71
13 43 24 -21 8 -20 94 2 118 15 17 14 18 -23 18 -21 0 -55 -8 -74 -18z"/>
</g>
</svg>
